<?xml version="1.0" encoding="UTF-8"?>
<svg width="300px" height="300px" viewBox="0 0 300 300" version="1.1" xmlns="http://www.w3.org/2000/svg" xmlns:xlink="http://www.w3.org/1999/xlink">
    <g id="Logo" stroke="none" stroke-width="1" fill="none" fill-rule="evenodd">
        <g id="favicon" fill="#000000">
            <path d="M150,0 C232.842712,0 300,67.1572875 300,150 C300,232.842712 232.842712,300 150,300 C67.1572875,300 0,232.842712 0,150 C0,67.1572875 67.1572875,0 150,0 Z M60.8289349,114.999916 L45.9301034,114.999916 L64.99677,185.83325 L86.5890825,185.83325 L105.655749,114.999916 L90.7569177,114.999916 L75.7925265,170.592941 L60.8289349,114.999916 Z M186.54674,115 L172.155597,115 L172.156326,125.036501 C165.991557,118.841622 157.557896,115 148.170357,115 C128.989911,115 113.791513,131.037199 113.791513,150.416667 C113.791513,169.796134 128.989911,185.833333 148.170357,185.833333 C157.384052,185.833333 165.678872,182.132676 171.811513,176.138562 L172.156326,175.796833 L172.155597,185.833333 L186.54674,185.833333 L186.54674,115 Z M220.925584,115 L206.53444,115 L206.53444,185.833333 L220.925584,185.833333 L220.925636,146.301321 C226.770638,133.798207 235.452679,127.880984 247.649814,127.736785 L248.108856,127.734082 L248.108856,115 L247.545679,115.00305 C237.208616,115.115306 228.427352,118.325059 221.348452,124.456607 L220.925762,124.828005 L220.925584,115 Z M262.5,171.507491 L248.108856,171.507491 L248.108856,185.833333 L262.5,185.833333 L262.5,171.507491 Z M148.170357,129.325843 C159.209259,129.325843 168.158057,138.768526 168.158057,150.416667 C168.158057,162.064807 159.209259,171.507491 148.170357,171.507491 C142.87619,171.507491 138.062764,169.335595 134.486662,165.790142 L134.036919,165.330131 C130.419856,161.513443 128.182657,156.240737 128.182657,150.416667 C128.182657,138.768526 137.131455,129.325843 148.170357,129.325843 Z" id="Shape"></path>
        </g>
    </g>
</svg>