<svg width="40px" height="40px" viewBox="0 0 40 40">  
  <path d="M0,0 L21.2864058,0.000462220134 L22.4935518,0.00390702 L22.4935518,0.00390702 L23.582914,0.0134273974 L23.582914,0.0134273974 L24.2494313,0.0246770545 L24.2494313,0.0246770545 L24.8721673,0.0409180951 L24.8721673,0.0409180951 L25.7316772,0.0766432364 L25.7316772,0.0766432364 L26.2599519,0.109372208 C26.3452536,0.115484826 26.4292307,0.121939068 26.5119548,0.128754026 L26.9938333,0.174125109 C27.6958088,0.249132848 28.3078495,0.356451613 28.882,0.51 C34.0588896,1.89713361 38.1023544,5.94097968 39.489,11.118 C39.6257551,11.628356 39.7259114,12.16865 39.7992637,12.7754344 L39.8494052,13.2435609 L39.8494052,13.2435609 L39.8904133,13.7400481 L39.8904133,13.7400481 L39.9232065,14.2683228 L39.9232065,14.2683228 L39.9590017,15.1278327 L39.9590017,15.1278327 L39.9752746,15.7505687 L39.9752746,15.7505687 L39.9905936,16.7678335 L39.9905936,16.7678335 L39.9995369,18.7135942 L39.9995369,18.7135942 L40,40 L17.5064482,39.996093 L17.5064482,39.996093 L16.417086,39.9865726 L16.417086,39.9865726 L15.7505687,39.9753229 L15.7505687,39.9753229 L15.1278327,39.9590819 L15.1278327,39.9590819 L14.2683228,39.9233568 L14.2683228,39.9233568 L13.7400481,39.8906278 C13.6547464,39.8845152 13.5707693,39.8780609 13.4880452,39.871246 L13.0061667,39.8258749 C12.3041912,39.7508672 11.6921505,39.6435484 11.118,39.49 C5.94111043,38.1028664 1.89764556,34.0590203 0.511,28.882 C0.374244922,28.371644 0.274088575,27.83135 0.200736316,27.2245656 L0.150594847,26.7564391 L0.150594847,26.7564391 L0.109586663,26.2599519 L0.109586663,26.2599519 L0.0767935172,25.7316772 L0.0767935172,25.7316772 L0.0409983267,24.8721673 L0.0409983267,24.8721673 L0.0247254409,24.2494313 L0.0247254409,24.2494313 L0.00940635461,23.2321665 L0.00940635461,23.2321665 L0.000463126448,21.2864058 L0.000463126448,21.2864058 L0,0 Z M10.5,12.5 L7.5,12.5 L7.5,27.5 L10.5,27.5 L10.5,12.5 Z M16,12.5 L13,12.5 L13,27.5 L16,27.5 L16,12.5 Z M21.5,12.5 L18.5,12.5 L18.5,27.5 L21.5,27.5 L21.5,12.5 Z M32.5,21.25 L29.5,21.25 L29.5,27.5 L32.5,27.5 L32.5,21.25 Z M27,21.25 L24,21.25 L24,27.5 L27,27.5 L27,21.25 Z M27,12.5 L24,12.5 L24,18.75 L27,18.75 L27,12.5 Z M32.5,12.5 L29.5,12.5 L29.5,18.75 L32.5,18.75 L32.5,12.5 Z" fill="#002266" fill-rule="nonzero"></path>
</svg>