<svg width="120" height="40" viewBox="0 0 120 40" fill="none" xmlns="http://www.w3.org/2000/svg">
  <path d="M38.0591 25.591H41.8111L39.9615 20.1437H39.9097L38.0591 25.591Z" fill="black"/>
  <path d="M50.8569 22.9318C52.3022 22.9318 53.2495 24.1369 53.2495 25.9699C53.2495 27.8195 52.3023 29.0158 50.8569 29.0158C49.437 29.0158 48.4819 27.7941 48.4819 25.9699C48.4819 24.1623 49.437 22.9318 50.8569 22.9318Z" fill="black"/>
  <path d="M63.2144 25.9699C63.2144 24.1369 62.2671 22.9318 60.8218 22.9318C59.4019 22.9318 58.4468 24.1623 58.4468 25.9699C58.4468 27.7941 59.4019 29.0158 60.8218 29.0158C62.2671 29.0158 63.2144 27.8195 63.2144 25.9699Z" fill="black"/>
  <path d="M90.3589 22.8625C91.8648 22.8625 92.7603 24.0158 92.7603 25.9699C92.7603 27.9318 91.8648 29.0764 90.3589 29.0764C88.8531 29.0764 87.9585 27.9318 87.9585 25.9699C87.9585 24.0246 88.8531 22.8625 90.3589 22.8625Z" fill="black"/>
  <path d="M107.628 25.135H103.102C103.1 24.5237 103.343 23.9371 103.776 23.5056C104.209 23.0741 104.796 22.8335 105.408 22.8371C106.014 22.8241 106.599 23.0646 107.02 23.5008C107.442 23.937 107.662 24.5293 107.628 25.135Z" fill="black"/>
  <path d="M36.5976 13.854H37.7226C38.2865 13.8877 38.8355 13.6656 39.2172 13.2493C39.5989 12.833 39.7728 12.2668 39.6904 11.708C39.7668 11.1515 39.5904 10.5901 39.2096 10.1771C38.8289 9.76423 38.2835 9.5431 37.7226 9.57422H36.5976V13.854Z" fill="black"/>
  <path d="M43.8057 10.8975C44.5752 10.8975 45.0137 11.4683 45.0137 12.4444C45.0137 13.4243 44.5752 13.9947 43.8057 13.9947C43.0332 13.9947 42.5987 13.4283 42.5987 12.4444C42.5987 11.4683 43.0332 10.8975 43.8057 10.8975Z" fill="black"/>
  <path d="M63.3428 10.8975C64.1123 10.8975 64.5508 11.4683 64.5508 12.4444C64.5508 13.4243 64.1123 13.9947 63.3428 13.9947C62.5703 13.9947 62.1358 13.4283 62.1358 12.4444C62.1358 11.4683 62.5703 10.8975 63.3428 10.8975Z" fill="black"/>
  <path d="M69.2954 13.0396V12.6631L68.1958 12.7334C67.5757 12.7749 67.2944 12.9859 67.2944 13.3828C67.2944 13.7881 67.646 14.0239 68.1294 14.0239C68.4156 14.0529 68.7013 13.9645 68.9211 13.7789C69.1409 13.5934 69.276 13.3266 69.2954 13.0396Z" fill="black"/>
  <path d="M73.4693 13.9741C72.7163 13.9741 72.2661 13.3994 72.2661 12.4444C72.2661 11.4971 72.7212 10.9185 73.4693 10.9185C74.2134 10.9185 74.6812 11.5098 74.6812 12.4483C74.6812 13.3911 74.2183 13.9741 73.4693 13.9741Z" fill="black"/>
  <path d="M82.563 12.4444C82.563 11.4683 82.1245 10.8975 81.355 10.8975C80.5825 10.8975 80.148 11.4683 80.148 12.4444C80.148 13.4283 80.5826 13.9947 81.355 13.9947C82.1245 13.9947 82.563 13.4243 82.563 12.4444Z" fill="black"/>
  <path d="M101.635 12.0308H103.91C103.932 11.7252 103.825 11.4242 103.614 11.2021C103.403 10.9799 103.108 10.8572 102.801 10.8643C102.491 10.8604 102.192 10.982 101.972 11.2017C101.753 11.4213 101.631 11.7203 101.635 12.0308Z" fill="black"/>
  <path fill-rule="evenodd" clip-rule="evenodd" d="M111.283 0H8.71721C5.68605 0 4.58687 0.315607 3.47872 0.908251C2.37058 1.5009 1.5009 2.37058 0.908251 3.47872C0.315607 4.58687 0 5.68605 0 8.71721V31.2828C0 34.314 0.315607 35.4131 0.908251 36.5213C1.5009 37.6294 2.37058 38.4991 3.47872 39.0917C4.58687 39.6844 5.68605 40 8.71721 40H111.283C114.314 40 115.413 39.6844 116.521 39.0917C117.629 38.4991 118.499 37.6294 119.092 36.5213C119.684 35.4131 120 34.314 120 31.2828V8.71721C120 5.68605 119.684 4.58687 119.092 3.47872C118.499 2.37058 117.629 1.5009 116.521 0.908251C115.413 0.315607 114.314 0 111.283 0ZM59.0938 8.43701H59.9824V14.6978H59.0938V8.43701ZM23.1518 8.72046C23.2486 9.98469 22.8488 11.2369 22.0372 12.2111C21.2499 13.1903 20.0569 13.7544 18.8005 13.7415C18.7206 12.5136 19.132 11.3044 19.9442 10.3801C20.7667 9.44324 21.9119 8.85068 23.1518 8.72046ZM27.1254 16.1488C25.6801 17.0374 24.7907 18.6044 24.7689 20.3009C24.7709 22.2202 25.9204 23.9524 27.6881 24.7C27.3481 25.8045 26.8357 26.8482 26.1697 27.7925C25.2753 29.1304 24.3376 30.4375 22.8492 30.4617C22.1413 30.478 21.6635 30.2745 21.1656 30.0624C20.6462 29.8411 20.105 29.6106 19.2582 29.6106C18.36 29.6106 17.7946 29.8485 17.2493 30.0781C16.778 30.2764 16.3218 30.4684 15.6788 30.4951C14.2613 30.5476 13.1781 29.0671 12.2512 27.7418C10.3985 25.0352 8.95595 20.1141 10.8899 16.7657C11.7981 15.1337 13.4962 14.0981 15.3629 14.0378C16.1668 14.0213 16.9382 14.3311 17.6145 14.6028C18.1318 14.8105 18.5934 14.996 18.9714 14.996C19.3037 14.996 19.7524 14.8179 20.2753 14.6103C21.0991 14.2834 22.1071 13.8833 23.1343 13.9911C24.7304 14.0411 26.2095 14.8407 27.1254 16.1488ZM42.3023 27.1398H37.5689L36.4321 30.4963H34.4273L38.9107 18.0783H40.9937L45.4771 30.4963H43.438L42.3023 27.1398ZM51.3814 30.591C53.6538 30.591 55.1597 28.7834 55.1597 25.9699C55.1597 23.1642 53.645 21.3478 51.3472 21.3478C50.1648 21.3097 49.0572 21.9247 48.4644 22.9484H48.4302V21.4426H46.6313V33.4914H48.4897V29.007H48.5327C49.1003 30.0372 50.2067 30.6525 51.3814 30.591ZM65.1245 25.9699C65.1245 28.7834 63.6187 30.591 61.3462 30.591C60.1716 30.6525 59.0652 30.0372 58.4976 29.007H58.4546V33.4914H56.5962V21.4426H58.395V22.9484H58.4292C59.022 21.9247 60.1296 21.3097 61.312 21.3478C63.6099 21.3478 65.1245 23.1642 65.1245 25.9699ZM74.6792 29.0763C73.0445 29.0763 71.8482 28.2678 71.7105 27.0363L69.8081 27.0362C69.9282 29.2823 71.7876 30.7032 74.5415 30.7032C77.4849 30.7032 79.3354 29.2481 79.3354 26.9249C79.3354 25.1085 78.2768 24.0851 75.729 23.4825L74.3608 23.1466C72.7603 22.7511 72.106 22.2345 72.106 21.3566C72.106 20.255 73.1304 19.4982 74.6274 19.4982C76.1245 19.4982 77.1489 20.2462 77.2612 21.4855H79.1372C79.0767 19.3429 77.2778 17.8712 74.6538 17.8712C72.0025 17.8712 70.1353 19.3429 70.1353 21.4855C70.1353 23.216 71.1939 24.2824 73.4741 24.8331L75.0835 25.2208C76.6929 25.6164 77.3726 26.1935 77.3726 27.1574C77.3726 28.2677 76.2456 29.0763 74.6792 29.0763ZM83.3462 19.3V21.4426H85.0679V22.9142H83.3462V27.9055C83.3462 28.6808 83.6909 29.0422 84.4478 29.0422C84.6522 29.0386 84.8562 29.0243 85.0591 28.9992V30.4621C84.7188 30.5257 84.373 30.5544 84.0269 30.548C82.1939 30.548 81.479 29.8595 81.479 28.1037V22.9142H80.1626V21.4426H81.479V19.3H83.3462ZM90.3589 21.3312C87.7427 21.3312 86.065 23.1213 86.065 25.9699C86.065 28.8264 87.7261 30.6086 90.3589 30.6086C92.9927 30.6086 94.6539 28.8264 94.6539 25.9699C94.6539 23.1213 92.9839 21.3312 90.3589 21.3312ZM96.186 21.4426H97.9585V22.9836H98.0015C98.2487 21.9916 99.1576 21.3088 100.179 21.3478C100.393 21.3471 100.607 21.3703 100.816 21.4172V23.1554C100.546 23.0728 100.264 23.0349 99.981 23.0431C99.4346 23.021 98.9059 23.2387 98.5336 23.6392C98.1612 24.0397 97.9826 24.5829 98.0444 25.1261V30.4963H96.186V21.4426ZM105.486 30.6086C107.534 30.6086 109.134 29.4806 109.384 27.8371L107.62 27.8371C107.281 28.6772 106.431 29.195 105.529 29.1105C104.853 29.1354 104.198 28.8686 103.732 28.378C103.266 27.8873 103.034 27.2201 103.093 26.5461V26.4338H109.488V25.7971C109.488 23.0519 107.913 21.3312 105.408 21.3312C102.861 21.3312 101.217 23.173 101.217 26.0129C101.217 28.8439 102.852 30.6086 105.486 30.6086ZM37.8262 8.73101C38.6151 8.6744 39.3879 8.97456 39.9317 9.54888C40.4756 10.1232 40.7333 10.9112 40.6338 11.6959C40.6338 13.6021 39.6035 14.6979 37.8262 14.6979H35.6709V8.73101H37.8262ZM42.6794 10.4286C41.9905 10.8561 41.6034 11.6372 41.6807 12.4444C41.602 13.2523 41.9886 14.035 42.6782 14.4634C43.3677 14.8918 44.2407 14.8918 44.9302 14.4634C45.6197 14.035 46.0064 13.2523 45.9277 12.4444C46.0049 11.6372 45.6179 10.8561 44.929 10.4286C44.2401 10.0011 43.3683 10.0011 42.6794 10.4286ZM51.5732 14.6978H50.6514L49.7207 11.3814H49.6504L48.7236 14.6978H47.8105L46.5693 10.1948H47.4707L48.2773 13.6308H48.3438L49.2695 10.1948H50.1221L51.0479 13.6308H51.1182L51.9209 10.1948H52.8096L51.5732 14.6978ZM54.709 10.1948H53.8535V14.6978H54.7422V12.0635C54.7103 11.7638 54.8109 11.4652 55.0175 11.2458C55.2242 11.0265 55.5163 10.9084 55.8174 10.9224C56.4746 10.9224 56.7891 11.2822 56.7891 12.0059V14.6977H57.6777V11.7827C57.7429 11.3424 57.6043 10.8964 57.3011 10.5706C56.9979 10.2448 56.563 10.0745 56.1191 10.1079C55.546 10.0613 55.0063 10.3835 54.7754 10.9102H54.709V10.1948ZM62.2167 10.4285C61.5277 10.8561 61.1406 11.6372 61.2178 12.4444C61.1392 13.2524 61.5259 14.035 62.2155 14.4634C62.9051 14.8918 63.778 14.8918 64.4676 14.4634C65.1572 14.035 65.5439 13.2524 65.4653 12.4444C65.5425 11.6372 65.1554 10.8561 64.4664 10.4285C63.7774 10.001 62.9057 10.001 62.2167 10.4285ZM66.4009 13.4243C66.4009 12.6138 67.0044 12.1465 68.0757 12.0801L69.2954 12.0098V11.6211C69.2954 11.1455 68.981 10.877 68.3735 10.877C67.8774 10.877 67.5337 11.0591 67.4351 11.3775H66.5747C66.6655 10.604 67.3931 10.1079 68.4146 10.1079C69.5435 10.1079 70.1802 10.6699 70.1802 11.6211V14.6978H69.3247V14.065H69.2544C68.9638 14.5271 68.4472 14.7972 67.9019 14.772C67.5196 14.8117 67.1384 14.6879 66.8524 14.4312C66.5664 14.1744 66.4024 13.8087 66.4009 13.4243ZM73.2173 10.1201C72.0796 10.1201 71.3481 11.0215 71.3481 12.4444C71.3481 13.8706 72.0718 14.772 73.2173 14.772C73.798 14.7934 74.3427 14.4907 74.6313 13.9863H74.7017V14.6978H75.5532V8.43701H74.6646V10.9101H74.5981C74.3298 10.4015 73.7918 10.0937 73.2173 10.1201ZM79.23 12.4444C79.1528 11.6372 79.5398 10.8561 80.2287 10.4286C80.9176 10.0011 81.7894 10.0011 82.4783 10.4286C83.1672 10.8561 83.5543 11.6372 83.477 12.4444C83.5557 13.2523 83.1691 14.035 82.4795 14.4634C81.79 14.8918 80.917 14.8918 80.2275 14.4634C79.538 14.035 79.1513 13.2523 79.23 12.4444ZM85.5249 10.1948H84.6694V14.6978H85.5581V12.0635C85.5262 11.7638 85.6268 11.4652 85.8335 11.2458C86.0401 11.0265 86.3323 10.9084 86.6333 10.9224C87.2905 10.9224 87.605 11.2822 87.605 12.0059V14.6977H88.4937V11.7827C88.5588 11.3424 88.4202 10.8964 88.117 10.5706C87.8138 10.2448 87.3789 10.0745 86.9351 10.1079C86.3619 10.0613 85.8222 10.3835 85.5913 10.9102H85.5249V10.1948ZM93.5151 9.07374V10.2153H94.4907V10.9639H93.5151V13.2793C93.5151 13.751 93.7095 13.9575 94.1519 13.9575C94.2651 13.9572 94.3783 13.9503 94.4907 13.937V14.6773C94.3311 14.7058 94.1694 14.721 94.0073 14.7227C93.0191 14.7227 92.6255 14.375 92.6255 13.5068V10.9638H91.9106V10.2153H92.6255V9.07374H93.5151ZM96.5854 8.43701H95.7046L95.7046 14.6978H96.5933V12.0679C96.5658 11.7589 96.6761 11.4535 96.8947 11.2334C97.1133 11.0133 97.4179 10.9009 97.7271 10.9263C98.355 10.9263 98.69 11.2905 98.69 12.0098V14.6978H99.5795V11.7905C99.6384 11.3525 99.4989 10.9111 99.199 10.5864C98.8991 10.2618 98.4701 10.0878 98.0288 10.1118C97.4469 10.0646 96.8978 10.3872 96.6558 10.9185H96.5854V8.43701ZM104.761 13.4819C104.512 14.3313 103.69 14.8801 102.81 14.7847C102.21 14.8005 101.633 14.5516 101.232 14.1041C100.831 13.6565 100.648 13.0555 100.73 12.4605C100.65 11.8638 100.833 11.2618 101.231 10.8105C101.63 10.3591 102.204 10.1028 102.806 10.1079C104.059 10.1079 104.815 10.9639 104.815 12.3779V12.688H101.635V12.7378C101.607 13.072 101.721 13.4025 101.95 13.6481C102.178 13.8936 102.499 14.0315 102.834 14.0278C103.269 14.08 103.692 13.8643 103.906 13.4819L104.761 13.4819Z" fill="black"/>
</svg>
  