<svg width="24" height="40" viewBox="0 0 24 40" fill="none" xmlns="http://www.w3.org/2000/svg">
    <path d="M24 19.9895C24 20.6463 23.8812 21.2541 23.6437 21.8131C23.3921 22.3581 22.9869 22.9031 22.4279 23.448L7.00087 38.5607C6.21834 39.3432 5.27511 39.7345 4.17118 39.7345C3.40262 39.7345 2.70393 39.5459 2.07511 39.1686C1.44629 38.7913 0.943232 38.2952 0.56594 37.6803C0.188647 37.0655 7.66362e-07 36.3808 7.66362e-07 35.6262C7.66362e-07 34.4943 0.461136 33.4812 1.38341 32.5869L14.421 19.9686L1.38341 7.39214C0.461136 6.52576 7.66362e-07 5.51266 7.66362e-07 4.35284C7.66362e-07 3.61223 0.188647 2.9345 0.56594 2.31965C0.943232 1.69083 1.44629 1.19476 2.07511 0.831442C2.70393 0.454149 3.40262 0.265503 4.17118 0.265503C5.27511 0.265503 6.21834 0.649782 7.00087 1.41834L22.4279 16.531C22.9729 17.076 23.3712 17.6279 23.6227 18.1869C23.8742 18.7319 24 19.3328 24 19.9895Z" fill="#E8E8ED" />
</svg>