<svg width="24" height="40" viewBox="0 0 24 40" fill="none" xmlns="http://www.w3.org/2000/svg">
    <path d="M0 19.9895C0 20.6463 0.118777 21.2541 0.356332 21.8131C0.60786 22.3581 1.0131 22.9031 1.57205 23.448L16.9991 38.5607C17.7817 39.3432 18.7249 39.7345 19.8288 39.7345C20.5974 39.7345 21.2961 39.5458 21.9249 39.1686C22.5537 38.7913 23.0568 38.2952 23.4341 37.6803C23.8114 37.0655 24 36.3808 24 35.6262C24 34.4943 23.5389 33.4812 22.6166 32.5869L9.57904 19.9686L22.6166 7.39214C23.5389 6.52576 24 5.51266 24 4.35284C24 3.61223 23.8114 2.9345 23.4341 2.31965C23.0568 1.69083 22.5537 1.19476 21.9249 0.831442C21.2961 0.454149 20.5974 0.265503 19.8288 0.265503C18.7249 0.265503 17.7817 0.649782 16.9991 1.41834L1.57205 16.531C1.02707 17.076 0.628821 17.6279 0.377293 18.1869C0.125764 18.7319 0 19.3327 0 19.9895Z" fill="#E8E8ED" />
</svg>