<svg width="71" height="24" viewBox="0 0 71 24" fill="none" xmlns="http://www.w3.org/2000/svg">
  <path fill-rule="evenodd" clip-rule="evenodd" d="M19.6555 0L13.3806 24H6.2746L0 0H4.90296L9.82749 18.8362L14.7523 0H19.6555Z" fill="black"/>
  <path fill-rule="evenodd" clip-rule="evenodd" d="M46.0353 0V24H41.3289L41.3291 20.5994C39.313 22.6984 36.5549 24 33.4848 24C27.2122 24 22.2418 18.5662 22.2418 12C22.2418 5.43378 27.2122 0 33.4848 0C36.5549 0 39.313 1.30163 41.3291 3.4006L41.3289 0H46.0353ZM33.4848 4.85393C29.8747 4.85393 26.9482 8.05334 26.9482 12C26.9482 15.9467 29.8747 19.1461 33.4848 19.1461C37.095 19.1461 40.0215 15.9467 40.0215 12C40.0215 8.05334 37.095 4.85393 33.4848 4.85393Z" fill="black"/>
  <path fill-rule="evenodd" clip-rule="evenodd" d="M57.2474 0L57.2474 3.2668C59.5929 1.22925 62.6308 0 65.9494 0V4.85393C61.1915 4.85393 57.3254 8.75881 57.2486 13.6057L57.2474 13.7528V24H52.5009V0H57.2474Z" fill="black"/>
  <path d="M70.6047 19.2H65.9494V24H70.6047V19.2Z" fill="black"/>
</svg>  