<svg xmlns="http://www.w3.org/2000/svg" width="262" height="86" fill="none" viewBox="0 0 262 86">
  <path fill="#212121" fill-rule="evenodd" d="M18.01 0l18.088 67.496L54.188 0h18.009L49.149 86H23.048L0 0h18.01zm151.969 0v86h-17.396V73.814C145.131 81.337 134.937 86 123.589 86c-23.185 0-41.558-19.471-41.558-43S100.404 0 123.59 0c11.348 0 21.542 4.664 28.994 12.186V0h17.396zm-46.39 17.393c-13.344 0-24.161 11.465-24.161 25.607s10.817 25.607 24.161 25.607c13.344 0 24.161-11.465 24.161-25.607s-10.817-25.607-24.161-25.607zM211.536 0v11.932C220.181 4.194 230.969.142 243.715.004l.681-.004v15.46c-15.036 0-25.706 7.174-32.86 22.544V86H194.14V0h17.396z" clip-rule="evenodd"/>
  <path fill="#FF9500" d="M261.792 68.607h-17.396V86h17.396V68.607z"/>
</svg>
