<?xml version="1.0" encoding="UTF-8"?>
<svg width="200px" height="191px" viewBox="0 0 200 191" version="1.1" xmlns="http://www.w3.org/2000/svg" xmlns:xlink="http://www.w3.org/1999/xlink">
    <title>Site Icon</title>
    <g id="Logo" stroke="none" stroke-width="1" fill="none" fill-rule="evenodd">
        <g id="Homepage-Logo" transform="translate(-450.000000, -905.000000)" fill="#FFFFFF" fill-rule="nonzero">
            <path d="M550,935.748582 C588.235098,935.748582 619.230769,966.723453 619.230769,1004.93289 C619.230769,1032.26076 603.37559,1055.88794 580.356495,1067.12899 L580.349193,1067.11337 L580.345151,1067.11534 C574.235733,1070.0951 566.869117,1067.56134 563.891354,1061.45602 C560.913591,1055.3507 563.4523,1047.98579 569.561718,1045.00603 C569.67055,1044.95294 569.77978,1044.90161 569.889378,1044.85202 L569.738,1044.927 L570.00693,1044.795 C584.601032,1037.46568 594.615385,1022.36799 594.615385,1004.93289 C594.615385,980.309032 574.640397,960.347448 550,960.347448 C525.359603,960.347448 505.384615,980.309032 505.384615,1004.93289 C505.384615,1006.63109 506.762201,1008.00775 508.461538,1008.00775 C510.160876,1008.00775 511.538462,1006.63109 511.538462,1004.93289 C511.538462,983.705427 528.758279,966.497165 550,966.497165 C571.241721,966.497165 588.461538,983.705427 588.461538,1004.93289 C588.461538,1020.11528 579.652824,1033.24167 566.864106,1039.48658 L566.861,1039.48 L566.583014,1039.61232 C560.530815,1042.37965 553.344014,1039.83077 550.412063,1033.81938 C547.435936,1027.71741 549.97022,1020.35724 556.072359,1017.3743 L556.071084,1017.37222 C560.675019,1015.12405 563.846154,1010.39855 563.846154,1004.93289 C563.846154,997.291005 557.64702,991.096031 550,991.096031 C542.35298,991.096031 536.153846,997.291005 536.153846,1004.93289 C536.153846,1028.70766 516.867651,1047.98091 493.076923,1047.98091 C469.524103,1047.98091 450.386174,1029.09119 450.005771,1005.64477 L450,1004.93289 C450,949.74148 494.771525,905 550,905 C605.228475,905 650,949.74148 650,1004.93289 C650,1044.45097 627.046413,1078.61156 593.73579,1094.82654 L593.837115,1094.75198 C593.831179,1094.74869 593.827811,1094.75034 593.824442,1094.75198 C587.715024,1097.73174 580.348408,1095.19798 577.370645,1089.09266 C574.392882,1082.98734 576.931591,1075.62243 583.041009,1072.64267 C583.228663,1072.55114 583.417502,1072.46482 583.607364,1072.38364 L583.353,1072.509 L583.804288,1072.28637 C608.463573,1059.90244 625.384615,1034.3924 625.384615,1004.93289 C625.384615,963.327059 591.633773,929.598866 550,929.598866 C508.366227,929.598866 474.615385,963.327059 474.615385,1004.93289 C474.615385,1006.63109 475.99297,1008.00775 477.692308,1008.00775 C479.391645,1008.00775 480.769231,1006.63109 480.769231,1004.93289 C480.769231,966.723453 511.764902,935.748582 550,935.748582 Z" id="Combined-Shape"></path>
        </g>
    </g>
</svg>