<?xml version="1.0" encoding="UTF-8"?>
<svg width="201px" height="66px" viewBox="0 0 201 66" version="1.1" xmlns="http://www.w3.org/2000/svg" xmlns:xlink="http://www.w3.org/1999/xlink">
    <g stroke="none" stroke-width="1" fill="none" fill-rule="evenodd">
        <g transform="translate(-103.000000, -167.000000)">
            <g transform="translate(103.000000, 167.000000)">
                <path d="M13.9113042,-7.79188927e-05 L27.7929131,51.7995401 L41.6752636,-7.79188927e-05 L55.496795,-7.79188927e-05 L37.808795,65.9999221 L17.7777728,65.9999221 L0.08977283,-7.79188927e-05 L13.9113042,-7.79188927e-05 Z M130.538745,-8.61249548e-16 L130.538745,66 L117.188192,66 L117.188869,56.6483429 C111.46986,62.4205123 103.646017,66 94.9372694,66 C77.143717,66 63.0442804,51.0571036 63.0442804,33 C63.0442804,14.9428964 77.143717,-8.61249548e-16 94.9372694,-8.61249548e-16 C103.646017,-8.61249548e-16 111.46986,3.57948774 117.188869,9.35165706 L117.188192,-8.61249548e-16 L130.538745,-8.61249548e-16 Z M94.9372694,13.3483146 C84.6965651,13.3483146 76.3948339,22.1466738 76.3948339,33 C76.3948339,43.8533262 84.6965651,52.6516854 94.9372694,52.6516854 C105.177974,52.6516854 113.479705,43.8533262 113.479705,33 C113.479705,22.1466738 105.177974,13.3483146 94.9372694,13.3483146 Z M162.431734,-8.61249548e-16 L162.431899,9.15738779 C169.065792,3.21895603 177.345585,0.109529873 187.126992,0.00284200692 L187.649446,-8.61249548e-16 L187.649446,11.8651685 C176.110176,11.8651685 167.921925,17.3698811 162.431783,29.1654657 L162.431734,66 L149.081181,66 L149.081181,-8.61249548e-16 L162.431734,-8.61249548e-16 Z" fill="#FFFFFF"></path>
                <rect fill="#FF9500" x="187.649446" y="52.6516854" width="13.3505535" height="13.3483146"></rect>
            </g>
        </g>
    </g>
</svg>